{"title":"Bombay Talkies 2013 DVDScr XviD AC3 2CD DVDrip - DADA RRG","uid":8444299,"size":1556205492,"categoryP":"video","categoryS":"movies","magnet":"?xt=urn:btih:13647f953b3e80c01157597295f8343d39977799&amp;dn=Bombay+Talkies+2013+DVDScr+XviD+AC3+2CD+DVDrip+-+DADA+RRG&amp;tr=udp%3A%2F%2Ftracker.openbittorrent.com%3A80&amp;tr=udp%3A%2F%2Fopen.demonii.com%3A1337&amp;tr=udp%3A%2F%2Ftracker.coppersurfer.tk%3A6969&amp;tr=udp%3A%2F%2Fexodus.desync.com%3A6969","seeders":0,"leechers":1,"uploader":"Bclassics","files":2,"time":1367850979,"description":"\nClick To Enlarge \n\n\n-: Cover :-\n\n &lt;a href=&quot;\nhttp://desibbrg.org/images/08251124627786338182.jpg&quot; rel=&quot;nofollow&quot; target=&quot;_NEW&quot;&gt;\nhttp://desibbrg.org/images/08251124627786338182.jpg&lt;/a&gt;\n\n-: Screens :-\n\n\n\n    &lt;a href=&quot;\thttp://desibbrg.org/images/15630644110804264258.png&quot; rel=&quot;nofollow&quot; target=&quot;_NEW&quot;&gt;\thttp://desibbrg.org/images/15630644110804264258.png&lt;/a&gt;\n\n    &lt;a href=&quot;\thttp://desibbrg.org/images/95102292475941787656.png&quot; rel=&quot;nofollow&quot; target=&quot;_NEW&quot;&gt;\thttp://desibbrg.org/images/95102292475941787656.png&lt;/a&gt;\n\n    &lt;a href=&quot;\thttp://desibbrg.org/images/47123375031592783453.png&quot; rel=&quot;nofollow&quot; target=&quot;_NEW&quot;&gt;\thttp://desibbrg.org/images/47123375031592783453.png&lt;/a&gt;\n\n    &lt;a href=&quot;\thttp://desibbrg.org/images/23944607166010042045.png&quot; rel=&quot;nofollow&quot; target=&quot;_NEW&quot;&gt;\thttp://desibbrg.org/images/23944607166010042045.png&lt;/a&gt;\n\n    &lt;a href=&quot;\thttp://desibbrg.org/images/47089412127213003977.png&quot; rel=&quot;nofollow&quot; target=&quot;_NEW&quot;&gt;\thttp://desibbrg.org/images/47089412127213003977.png&lt;/a&gt;\n\n    &lt;a href=&quot;\thttp://desibbrg.org/images/23967045463308810998.png&quot; rel=&quot;nofollow&quot; target=&quot;_NEW&quot;&gt;\thttp://desibbrg.org/images/23967045463308810998.png&lt;/a&gt;\n\n    &lt;a href=&quot;\thttp://desibbrg.org/images/83366773089841050014.png&quot; rel=&quot;nofollow&quot; target=&quot;_NEW&quot;&gt;\thttp://desibbrg.org/images/83366773089841050014.png&lt;/a&gt;\n\n    &lt;a href=&quot;\thttp://desibbrg.org/images/80580346508877632663.png&quot; rel=&quot;nofollow&quot; target=&quot;_NEW&quot;&gt;\thttp://desibbrg.org/images/80580346508877632663.png&lt;/a&gt;\n\n    &lt;a href=&quot;\thttp://desibbrg.org/images/40616589345288782416.png&quot; rel=&quot;nofollow&quot; target=&quot;_NEW&quot;&gt;\thttp://desibbrg.org/images/40616589345288782416.png&lt;/a&gt;\n\n\n\n\n\n-: Info :-\n\n\nGeneral\nComplete name                    : D:dadaBombay.Talkies.2013.DVDScr.XviD.AC3.2CD.DVDrip.RRG.DADA.DBBians.ComBombay.Talkies.2013.DVDScr.XviD.AC3.2CD.DVDrip.RRG.DADA.DBBians.Com.avi\nFormat                           : AVI\nFormat/Info                      : Audio Video Interleave\nFile size                        : 1.45 GiB\nDuration                         : 2h 6mn\nOverall bit rate                 : 1 641 Kbps\nMovie name                       : Bombay Talkies - DVDScr - XviD - AC3 [DDR]\nWriting application              : VirtualDubMod 1.5.10.2 (build 2540/release)\nWriting library                  : VirtualDubMod build 2540/release\n\nVideo\nID                               : 0\nFormat                           : MPEG-4 Visual\nFormat profile                   : Advanced Simple@L5\nFormat settings, BVOP            : Yes\nFormat settings, QPel            : No\nFormat settings, GMC             : No warppoints\nFormat settings, Matrix          : Default (MPEG)\nCodec ID                         : XVID\nCodec ID/Hint                    : XviD\nDuration                         : 2h 6mn\nBit rate                         : 1 440 Kbps\nWidth                            : 720 pixels\nHeight                           : 304 pixels\nDisplay aspect ratio             : 2.35:1\nFrame rate                       : 25.000 fps\nColor space                      : YUV\nChroma subsampling               : 4:2:0\nBit depth                        : 8 bits\nScan type                        : Progressive\nBits/(Pixel*Frame)               : 0.263\nStream size                      : 1.27 GiB (88%)\nWriting library                  : XviD 1.2.1 (UTC 2008-12-04)\n\nAudio\nID                               : 1\nFormat                           : AC-3\nFormat/Info                      : Audio Coding 3\nMode extension                   : CM (complete main)\nCodec ID                         : 2000\nDuration                         : 2h 6mn\nBit rate mode                    : Constant\nBit rate                         : 192 Kbps\nChannel(s)                       : 2 channels\nChannel positions                : Front: L R\nSampling rate                    : 48.0 KHz\nBit depth                        : 16 bits\nStream size                      : 174 MiB (12%)\nAlignment                        : Split accross interleaves\nInterleave, duration             : 40 ms (1.00 video frame)\nInterleave, preload duration     : 500 ms\n\n\n\n &lt;a href=&quot;\nhttp://www.imdb.com/title/tt2797242/&quot; rel=&quot;nofollow&quot; target=&quot;_NEW&quot;&gt;\nhttp://www.imdb.com/title/tt2797242/&lt;/a&gt;\n\n\nDirected by\nZoya Akhtar\t \t\nDibakar Banerjee\t \t\nKaran Johar\t \t\nAnurag Kashyap\t \t\n \nCast (in alphabetical order)\n\n\tFarhan Akhtar\t... \tSpecial appearance\n\tSadashiv Amrapurkar\t\t\n\n\tAmitabh Bachchan\t\t\n\n\tVidya Balan\t... \tSpecial Appearance\n\n\tJuhi Chawla\t... \tSpecial appearance\n\tMadhuri Dixit\t... \tSpecial Appearance\n\n\tRandeep Hooda\t\t\n\n\tKatrina Kaif\t\t\n\n\tAnil Kapoor\t... \tSpecial Appearance\n\n\tKareena Kapoor\t... \tSpecial Appearance\n\n\tKarisma Kapoor\t... \tSpecial Appearance\n\n\tRanbir Kapoor\t... \tNarrator (voice)\n\n\tAamir Khan\t... \t(rumored)\n\n\tImran Khan\t... \tSpecial Appearance\n\n\tSaif Ali Khan\t... \tSpecial Appearance\n\n\tRani Mukerji\t\t\n\tSaqib Saleem\t\t\n\n\tNawazuddin Siddiqui\t\t\n\n\tRanveer Singh\t... \tSpecial Appearance\n\n\tSridevi\t... \tSpecial Appearance\n\nOne hundred years of Hindi cinema is celebrated in four short stories showcasing the power of film. ","torrent":{"xt":"urn:btih:13647f953b3e80c01157597295f8343d39977799","amp;dn":"Bombay+Talkies+2013+DVDScr+XviD+AC3+2CD+DVDrip+-+DADA+RRG","amp;tr":["udp%3A%2F%2Ftracker.openbittorrent.com%3A80","udp%3A%2F%2Fopen.demonii.com%3A1337","udp%3A%2F%2Ftracker.coppersurfer.tk%3A6969","udp%3A%2F%2Fexodus.desync.com%3A6969"],"infoHash":"13647f953b3e80c01157597295f8343d39977799","infoHashBuffer":{"type":"Buffer","data":[19,100,127,149,59,62,128,192,17,87,89,114,149,248,52,61,57,151,119,153]},"announce":[],"urlList":[]}}